<svg width="100" height="100" viewBox="0 0 100 100" fill="none" xmlns="http://www.w3.org/2000/svg">
<circle cx="50" cy="50" r="50" fill="#DADADA"/>
<path d="M32.8364 64.2813C35.5552 64.2813 38.2018 64.6003 40.7761 65.2383C43.3504 65.8763 45.8811 66.8333 48.3682 68.1094V35.4172C46.0841 33.8859 43.6066 32.6992 40.9358 31.857C38.2651 31.0148 35.5652 30.5938 32.8364 30.5938C30.9076 30.5938 29.0169 30.8362 27.1642 31.3211C25.3116 31.806 23.4462 32.4057 21.5682 33.1203V66.3484C23.1417 65.6339 24.9309 65.1107 26.9358 64.7789C28.9407 64.4471 30.9076 64.2813 32.8364 64.2813ZM52.9364 68.1094C55.4742 66.8333 57.9614 65.8763 60.3977 65.2383C62.8341 64.6003 65.4227 64.2813 68.1636 64.2813C70.0924 64.2813 72.0847 64.4344 74.1403 64.7406C76.196 65.0469 77.9598 65.4552 79.4318 65.9656V33.1203C77.7061 32.2526 75.8833 31.6146 73.9636 31.2063C72.0437 30.7979 70.1104 30.5938 68.1636 30.5938C65.4227 30.5938 62.7706 31.0148 60.2074 31.857C57.6441 32.6992 55.2205 33.8859 52.9364 35.4172V68.1094ZM50.6523 75C48.0636 73.0604 45.2466 71.5674 42.2011 70.5211C39.1557 69.4747 36.0341 68.9516 32.8364 68.9516C30.9818 68.9516 29.1604 69.1813 27.3722 69.6406C25.5839 70.1 23.8015 70.6615 22.025 71.325C20.8525 71.8865 19.7219 71.8099 18.6331 71.0953C17.5444 70.3807 17 69.3599 17 68.0328V32.5844C17 31.8188 17.1777 31.1169 17.533 30.4789C17.8883 29.8409 18.4212 29.3432 19.1318 28.9859C21.2636 27.9651 23.4816 27.2122 25.7858 26.7273C28.0898 26.2424 30.44 26 32.8364 26C36.0341 26 39.143 26.4339 42.1631 27.3016C45.1831 28.1693 48.0129 29.4964 50.6523 31.2828C53.2409 29.4964 56.0199 28.1693 58.9892 27.3016C61.9585 26.4339 65.0167 26 68.1636 26C70.5425 26 72.8757 26.2424 75.1632 26.7273C77.4506 27.2122 79.6602 27.9651 81.792 28.9859C82.5027 29.3432 83.0483 29.8409 83.429 30.4789C83.8097 31.1169 84 31.8188 84 32.5844V68.0328C84 69.4566 83.429 70.5399 82.2869 71.2827C81.1449 72.0255 80.0155 72.0396 78.8989 71.325C77.1731 70.6104 75.4161 70.0362 73.6278 69.6023C71.8396 69.1685 70.0182 68.9516 68.1636 68.9516C64.9659 68.9516 61.8951 69.4875 58.9511 70.5594C56.0072 71.6313 53.2409 73.1115 50.6523 75Z" fill="black"/>
</svg>
