<svg width="255" height="117" viewBox="0 0 255 117" fill="none" xmlns="http://www.w3.org/2000/svg">
<path d="M1.50793 68.2684C1.79544 69.5621 6.12279 70.7571 7.16133 71.4989C10.1535 73.6361 13.0524 73.5179 16.6285 73.5179C20.2065 73.5179 23.7222 74.5071 27.352 74.3256C29.4863 74.2189 31.341 73.1141 33.5663 73.1141C36.0625 73.1141 38.4788 72.6353 40.8574 71.9924C42.8721 71.4479 44.8688 71.0165 46.9594 70.781C48.3352 70.626 49.7112 70.7699 51.0873 70.6912C52.5687 70.6066 53.9244 69.8836 55.4395 69.8836C59.1376 69.8836 62.7792 69.1538 66.4771 69.076C71.699 68.9661 76.7242 68.9259 81.9566 69.0536C89.5377 69.2385 97.2485 68.8617 104.817 68.4478C115.574 67.8596 128.02 66.248 137.279 60.4613C143.01 56.8798 148.953 53.4941 154.419 49.5134C161.795 44.1414 166.943 37.4719 172.568 30.3772C177.293 24.4171 182.667 18.8796 188.743 14.2919C190.724 12.7958 193.439 11.7189 194.127 9.31152" stroke="black" stroke-width="3" stroke-linecap="round"/>
<path d="M34.2169 115.111C39.7485 107.367 47.8673 99.2496 56.4715 95.0547C61.4435 92.6307 66.1619 91.4426 71.637 91.0614C83.8686 90.2099 96.0664 88.9227 108.294 88.0104C120.84 87.0744 133.416 86.7362 145.961 85.8119C157.613 84.9533 168.238 82.2186 178.962 77.4664C190.72 72.2559 201.984 64.7457 210.773 55.3015C217.573 47.9946 222.744 40.9837 228.878 32.9795C236.914 22.4931 245.298 12.3804 253.488 2.04291" stroke="black" stroke-width="3" stroke-linecap="round"/>
</svg>
