<svg width="300" height="200" viewBox="0 0 300 200" fill="none" xmlns="http://www.w3.org/2000/svg">
<rect width="300" height="200" fill="white"/>
<path d="M57.8182 112V88.7273H60.6364V100.273H60.9091L71.3636 88.7273H75.0455L65.2727 99.2273L75.0455 112H71.6364L63.5455 101.182L60.6364 104.455V112H57.8182ZM78.3295 112V94.5455H80.9205V97.1818H81.1023C81.4205 96.3182 81.9962 95.6174 82.8295 95.0795C83.6629 94.5417 84.6023 94.2727 85.6477 94.2727C85.8447 94.2727 86.0909 94.2765 86.3864 94.2841C86.6818 94.2917 86.9053 94.303 87.0568 94.3182V97.0455C86.9659 97.0227 86.7576 96.9886 86.4318 96.9432C86.1136 96.8902 85.7765 96.8636 85.4205 96.8636C84.572 96.8636 83.8144 97.0417 83.1477 97.3977C82.4886 97.7462 81.9659 98.2311 81.5795 98.8523C81.2008 99.4659 81.0114 100.167 81.0114 100.955V112H78.3295ZM95.3722 112.409C94.2661 112.409 93.2623 112.201 92.3608 111.784C91.4593 111.36 90.7434 110.75 90.2131 109.955C89.6828 109.152 89.4176 108.182 89.4176 107.045C89.4176 106.045 89.6146 105.235 90.0085 104.614C90.4025 103.985 90.929 103.492 91.5881 103.136C92.2472 102.78 92.9744 102.515 93.7699 102.341C94.5729 102.159 95.3797 102.015 96.1903 101.909C97.2509 101.773 98.1108 101.67 98.7699 101.602C99.4366 101.527 99.9214 101.402 100.224 101.227C100.535 101.053 100.69 100.75 100.69 100.318V100.227C100.69 99.1061 100.384 98.2348 99.7699 97.6136C99.1638 96.9924 98.2434 96.6818 97.0085 96.6818C95.7282 96.6818 94.7244 96.9621 93.9972 97.5227C93.2699 98.0833 92.7585 98.6818 92.4631 99.3182L89.9176 98.4091C90.3722 97.3485 90.9782 96.5227 91.7358 95.9318C92.5009 95.3333 93.3343 94.9167 94.2358 94.6818C95.1449 94.4394 96.0388 94.3182 96.9176 94.3182C97.4782 94.3182 98.1222 94.3864 98.8494 94.5227C99.5843 94.6515 100.293 94.9205 100.974 95.3295C101.664 95.7386 102.236 96.3561 102.69 97.1818C103.145 98.0076 103.372 99.1136 103.372 100.5V112H100.69V109.636H100.554C100.372 110.015 100.069 110.42 99.6449 110.852C99.2206 111.284 98.6563 111.652 97.9517 111.955C97.2472 112.258 96.3873 112.409 95.3722 112.409ZM95.7812 110C96.8419 110 97.7358 109.792 98.4631 109.375C99.1979 108.958 99.7509 108.42 100.122 107.761C100.501 107.102 100.69 106.409 100.69 105.682V103.227C100.577 103.364 100.327 103.489 99.9403 103.602C99.5616 103.708 99.1222 103.803 98.6222 103.886C98.1297 103.962 97.6487 104.03 97.179 104.091C96.7169 104.144 96.3419 104.189 96.054 104.227C95.357 104.318 94.7055 104.466 94.0994 104.67C93.5009 104.867 93.0161 105.167 92.6449 105.568C92.2813 105.962 92.0994 106.5 92.0994 107.182C92.0994 108.114 92.4441 108.818 93.1335 109.295C93.8305 109.765 94.7131 110 95.7812 110ZM115.358 112.364C113.722 112.364 112.313 111.977 111.131 111.205C109.949 110.432 109.04 109.367 108.403 108.011C107.767 106.655 107.449 105.106 107.449 103.364C107.449 101.591 107.775 100.027 108.426 98.6705C109.085 97.3068 110.002 96.2424 111.176 95.4773C112.358 94.7045 113.737 94.3182 115.312 94.3182C116.54 94.3182 117.646 94.5455 118.631 95C119.616 95.4545 120.422 96.0909 121.051 96.9091C121.68 97.7273 122.07 98.6818 122.222 99.7727H119.54C119.335 98.9773 118.881 98.2727 118.176 97.6591C117.479 97.0379 116.54 96.7273 115.358 96.7273C114.313 96.7273 113.396 97 112.608 97.5455C111.828 98.0833 111.218 98.8447 110.778 99.8295C110.347 100.807 110.131 101.955 110.131 103.273C110.131 104.621 110.343 105.795 110.767 106.795C111.199 107.795 111.805 108.572 112.585 109.125C113.373 109.678 114.297 109.955 115.358 109.955C116.055 109.955 116.688 109.833 117.256 109.591C117.824 109.348 118.305 109 118.699 108.545C119.093 108.091 119.373 107.545 119.54 106.909H122.222C122.07 107.939 121.695 108.867 121.097 109.693C120.506 110.511 119.722 111.163 118.744 111.648C117.775 112.125 116.646 112.364 115.358 112.364ZM128.642 105.636L128.597 102.318H129.142L136.778 94.5455H140.097L131.96 102.773H131.733L128.642 105.636ZM126.142 112V88.7273H128.824V112H126.142ZM137.233 112L130.415 103.364L132.324 101.5L140.642 112H137.233ZM150.148 112.364C148.466 112.364 147.015 111.992 145.795 111.25C144.583 110.5 143.648 109.455 142.989 108.114C142.337 106.765 142.011 105.197 142.011 103.409C142.011 101.621 142.337 100.045 142.989 98.6818C143.648 97.3106 144.564 96.2424 145.739 95.4773C146.92 94.7045 148.299 94.3182 149.875 94.3182C150.784 94.3182 151.682 94.4697 152.568 94.7727C153.455 95.0758 154.261 95.5682 154.989 96.25C155.716 96.9242 156.295 97.8182 156.727 98.9318C157.159 100.045 157.375 101.417 157.375 103.045V104.182H143.92V101.864H154.648C154.648 100.879 154.451 100 154.057 99.2273C153.67 98.4545 153.117 97.8447 152.398 97.3977C151.686 96.9508 150.845 96.7273 149.875 96.7273C148.807 96.7273 147.883 96.9924 147.102 97.5227C146.33 98.0455 145.735 98.7273 145.318 99.5682C144.902 100.409 144.693 101.311 144.693 102.273V103.818C144.693 105.136 144.92 106.254 145.375 107.17C145.837 108.08 146.477 108.773 147.295 109.25C148.114 109.72 149.064 109.955 150.148 109.955C150.852 109.955 151.489 109.856 152.057 109.659C152.633 109.455 153.129 109.152 153.545 108.75C153.962 108.341 154.284 107.833 154.511 107.227L157.102 107.955C156.83 108.833 156.371 109.606 155.727 110.273C155.083 110.932 154.288 111.447 153.341 111.818C152.394 112.182 151.33 112.364 150.148 112.364ZM164.136 101.5V112H161.455V94.5455H164.045V97.2727H164.273C164.682 96.3864 165.303 95.6742 166.136 95.1364C166.97 94.5909 168.045 94.3182 169.364 94.3182C170.545 94.3182 171.58 94.5606 172.466 95.0455C173.352 95.5227 174.042 96.25 174.534 97.2273C175.027 98.197 175.273 99.4242 175.273 100.909V112H172.591V101.091C172.591 99.7197 172.235 98.6515 171.523 97.8864C170.811 97.1136 169.833 96.7273 168.591 96.7273C167.735 96.7273 166.97 96.9129 166.295 97.2841C165.629 97.6553 165.102 98.197 164.716 98.9091C164.33 99.6212 164.136 100.485 164.136 101.5ZM189.537 112V88.7273H197.401C199.226 88.7273 200.719 89.0568 201.878 89.7159C203.045 90.3674 203.908 91.25 204.469 92.3636C205.029 93.4773 205.31 94.7197 205.31 96.0909C205.31 97.4621 205.029 98.7083 204.469 99.8295C203.916 100.951 203.06 101.845 201.901 102.511C200.741 103.17 199.257 103.5 197.446 103.5H191.81V101H197.355C198.605 101 199.609 100.784 200.366 100.352C201.124 99.9205 201.673 99.3371 202.014 98.6023C202.363 97.8598 202.537 97.0227 202.537 96.0909C202.537 95.1591 202.363 94.3258 202.014 93.5909C201.673 92.8561 201.12 92.2803 200.355 91.8636C199.59 91.4394 198.575 91.2273 197.31 91.2273H192.355V112H189.537ZM209.486 112V94.5455H212.168V112H209.486ZM210.849 91.6364C210.327 91.6364 209.876 91.4583 209.497 91.1023C209.126 90.7462 208.94 90.3182 208.94 89.8182C208.94 89.3182 209.126 88.8902 209.497 88.5341C209.876 88.178 210.327 88 210.849 88C211.372 88 211.819 88.178 212.19 88.5341C212.569 88.8902 212.759 89.3182 212.759 89.8182C212.759 90.3182 212.569 90.7462 212.19 91.1023C211.819 91.4583 211.372 91.6364 210.849 91.6364ZM224.17 112.364C222.534 112.364 221.125 111.977 219.943 111.205C218.761 110.432 217.852 109.367 217.216 108.011C216.58 106.655 216.261 105.106 216.261 103.364C216.261 101.591 216.587 100.027 217.239 98.6705C217.898 97.3068 218.814 96.2424 219.989 95.4773C221.17 94.7045 222.549 94.3182 224.125 94.3182C225.352 94.3182 226.458 94.5455 227.443 95C228.428 95.4545 229.235 96.0909 229.864 96.9091C230.492 97.7273 230.883 98.6818 231.034 99.7727H228.352C228.148 98.9773 227.693 98.2727 226.989 97.6591C226.292 97.0379 225.352 96.7273 224.17 96.7273C223.125 96.7273 222.208 97 221.42 97.5455C220.64 98.0833 220.03 98.8447 219.591 99.8295C219.159 100.807 218.943 101.955 218.943 103.273C218.943 104.621 219.155 105.795 219.58 106.795C220.011 107.795 220.617 108.572 221.398 109.125C222.186 109.678 223.11 109.955 224.17 109.955C224.867 109.955 225.5 109.833 226.068 109.591C226.636 109.348 227.117 109 227.511 108.545C227.905 108.091 228.186 107.545 228.352 106.909H231.034C230.883 107.939 230.508 108.867 229.909 109.693C229.318 110.511 228.534 111.163 227.557 111.648C226.587 112.125 225.458 112.364 224.17 112.364ZM242.545 94.5455V96.8182H233.5V94.5455H242.545ZM236.136 90.3636H238.818V107C238.818 107.758 238.928 108.326 239.148 108.705C239.375 109.076 239.663 109.326 240.011 109.455C240.367 109.576 240.742 109.636 241.136 109.636C241.432 109.636 241.674 109.621 241.864 109.591C242.053 109.553 242.205 109.523 242.318 109.5L242.864 111.909C242.682 111.977 242.428 112.045 242.102 112.114C241.777 112.189 241.364 112.227 240.864 112.227C240.106 112.227 239.364 112.064 238.636 111.739C237.917 111.413 237.318 110.917 236.841 110.25C236.371 109.583 236.136 108.742 236.136 107.727V90.3636Z" fill="black"/>
</svg>
