<svg width="300" height="200" viewBox="0 0 300 200" fill="none" xmlns="http://www.w3.org/2000/svg">
<rect width="300" height="200" fill="white"/>
<path d="M73.2088 84V60.7273H81.0724C82.8906 60.7273 84.383 61.0379 85.5497 61.6591C86.7164 62.2727 87.58 63.1174 88.1406 64.1932C88.7012 65.2689 88.9815 66.4924 88.9815 67.8636C88.9815 69.2348 88.7012 70.4508 88.1406 71.5114C87.58 72.572 86.7202 73.4053 85.5611 74.0114C84.402 74.6098 82.9209 74.9091 81.1179 74.9091H74.7543V72.3636H81.027C82.2694 72.3636 83.2694 72.1818 84.027 71.8182C84.7921 71.4545 85.3452 70.9394 85.6861 70.2727C86.0346 69.5985 86.2088 68.7955 86.2088 67.8636C86.2088 66.9318 86.0346 66.1174 85.6861 65.4205C85.3376 64.7235 84.7808 64.1856 84.0156 63.8068C83.2505 63.4205 82.2391 63.2273 80.9815 63.2273H76.027V84H73.2088ZM84.1634 73.5455L89.8906 84H86.6179L80.9815 73.5455H84.1634ZM100.217 84.3636C98.6416 84.3636 97.259 83.9886 96.0696 83.2386C94.8878 82.4886 93.9635 81.4394 93.2969 80.0909C92.6378 78.7424 92.3082 77.1667 92.3082 75.3636C92.3082 73.5455 92.6378 71.9583 93.2969 70.6023C93.9635 69.2462 94.8878 68.1932 96.0696 67.4432C97.259 66.6932 98.6416 66.3182 100.217 66.3182C101.793 66.3182 103.172 66.6932 104.354 67.4432C105.543 68.1932 106.467 69.2462 107.126 70.6023C107.793 71.9583 108.126 73.5455 108.126 75.3636C108.126 77.1667 107.793 78.7424 107.126 80.0909C106.467 81.4394 105.543 82.4886 104.354 83.2386C103.172 83.9886 101.793 84.3636 100.217 84.3636ZM100.217 81.9545C101.414 81.9545 102.399 81.6477 103.172 81.0341C103.945 80.4205 104.517 79.6136 104.888 78.6136C105.259 77.6136 105.445 76.5303 105.445 75.3636C105.445 74.197 105.259 73.1098 104.888 72.1023C104.517 71.0947 103.945 70.2803 103.172 69.6591C102.399 69.0379 101.414 68.7273 100.217 68.7273C99.0204 68.7273 98.0355 69.0379 97.2628 69.6591C96.4901 70.2803 95.9181 71.0947 95.5469 72.1023C95.1757 73.1098 94.9901 74.197 94.9901 75.3636C94.9901 76.5303 95.1757 77.6136 95.5469 78.6136C95.9181 79.6136 96.4901 80.4205 97.2628 81.0341C98.0355 81.6477 99.0204 81.9545 100.217 81.9545ZM112.584 84V60.7273H115.266V69.3182H115.493C115.69 69.0152 115.963 68.6288 116.311 68.1591C116.667 67.6818 117.175 67.2576 117.834 66.8864C118.5 66.5076 119.402 66.3182 120.538 66.3182C122.008 66.3182 123.304 66.6856 124.425 67.4205C125.546 68.1553 126.421 69.197 127.05 70.5455C127.679 71.8939 127.993 73.4848 127.993 75.3182C127.993 77.1667 127.679 78.7689 127.05 80.125C126.421 81.4735 125.55 82.5189 124.436 83.2614C123.322 83.9962 122.038 84.3636 120.584 84.3636C119.463 84.3636 118.565 84.178 117.891 83.8068C117.216 83.428 116.697 83 116.334 82.5227C115.97 82.0379 115.69 81.6364 115.493 81.3182H115.175V84H112.584ZM115.22 75.2727C115.22 76.5909 115.413 77.7538 115.8 78.7614C116.186 79.7614 116.75 80.5455 117.493 81.1136C118.235 81.6742 119.144 81.9545 120.22 81.9545C121.341 81.9545 122.277 81.6591 123.027 81.0682C123.785 80.4697 124.353 79.6667 124.732 78.6591C125.118 77.6439 125.311 76.5152 125.311 75.2727C125.311 74.0455 125.122 72.9394 124.743 71.9545C124.372 70.9621 123.807 70.178 123.05 69.6023C122.3 69.0189 121.357 68.7273 120.22 68.7273C119.129 68.7273 118.213 69.0038 117.47 69.5568C116.728 70.1023 116.167 70.8674 115.788 71.8523C115.41 72.8295 115.22 73.9697 115.22 75.2727ZM139.186 84.3636C137.61 84.3636 136.228 83.9886 135.038 83.2386C133.857 82.4886 132.932 81.4394 132.266 80.0909C131.607 78.7424 131.277 77.1667 131.277 75.3636C131.277 73.5455 131.607 71.9583 132.266 70.6023C132.932 69.2462 133.857 68.1932 135.038 67.4432C136.228 66.6932 137.61 66.3182 139.186 66.3182C140.762 66.3182 142.141 66.6932 143.322 67.4432C144.512 68.1932 145.436 69.2462 146.095 70.6023C146.762 71.9583 147.095 73.5455 147.095 75.3636C147.095 77.1667 146.762 78.7424 146.095 80.0909C145.436 81.4394 144.512 82.4886 143.322 83.2386C142.141 83.9886 140.762 84.3636 139.186 84.3636ZM139.186 81.9545C140.383 81.9545 141.368 81.6477 142.141 81.0341C142.913 80.4205 143.485 79.6136 143.857 78.6136C144.228 77.6136 144.413 76.5303 144.413 75.3636C144.413 74.197 144.228 73.1098 143.857 72.1023C143.485 71.0947 142.913 70.2803 142.141 69.6591C141.368 69.0379 140.383 68.7273 139.186 68.7273C137.989 68.7273 137.004 69.0379 136.232 69.6591C135.459 70.2803 134.887 71.0947 134.516 72.1023C134.144 73.1098 133.959 74.197 133.959 75.3636C133.959 76.5303 134.144 77.6136 134.516 78.6136C134.887 79.6136 135.459 80.4205 136.232 81.0341C137.004 81.6477 137.989 81.9545 139.186 81.9545ZM170.28 68H167.462C167.295 67.1894 167.003 66.4773 166.587 65.8636C166.178 65.25 165.678 64.7348 165.087 64.3182C164.503 63.8939 163.856 63.5758 163.143 63.3636C162.431 63.1515 161.689 63.0455 160.916 63.0455C159.507 63.0455 158.231 63.4015 157.087 64.1136C155.95 64.8258 155.045 65.875 154.371 67.2614C153.704 68.6477 153.371 70.3485 153.371 72.3636C153.371 74.3788 153.704 76.0795 154.371 77.4659C155.045 78.8523 155.95 79.9015 157.087 80.6136C158.231 81.3258 159.507 81.6818 160.916 81.6818C161.689 81.6818 162.431 81.5758 163.143 81.3636C163.856 81.1515 164.503 80.8371 165.087 80.4205C165.678 79.9962 166.178 79.4773 166.587 78.8636C167.003 78.2424 167.295 77.5303 167.462 76.7273H170.28C170.068 77.9167 169.681 78.9811 169.121 79.9205C168.56 80.8598 167.863 81.6591 167.03 82.3182C166.196 82.9697 165.261 83.4659 164.223 83.8068C163.193 84.1477 162.09 84.3182 160.916 84.3182C158.931 84.3182 157.166 83.8333 155.621 82.8636C154.075 81.8939 152.859 80.5152 151.973 78.7273C151.087 76.9394 150.643 74.8182 150.643 72.3636C150.643 69.9091 151.087 67.7879 151.973 66C152.859 64.2121 154.075 62.8333 155.621 61.8636C157.166 60.8939 158.931 60.4091 160.916 60.4091C162.09 60.4091 163.193 60.5795 164.223 60.9205C165.261 61.2614 166.196 61.7614 167.03 62.4205C167.863 63.072 168.56 63.8674 169.121 64.8068C169.681 65.7386 170.068 66.803 170.28 68ZM181.561 84.3636C179.985 84.3636 178.603 83.9886 177.413 83.2386C176.232 82.4886 175.307 81.4394 174.641 80.0909C173.982 78.7424 173.652 77.1667 173.652 75.3636C173.652 73.5455 173.982 71.9583 174.641 70.6023C175.307 69.2462 176.232 68.1932 177.413 67.4432C178.603 66.6932 179.985 66.3182 181.561 66.3182C183.137 66.3182 184.516 66.6932 185.697 67.4432C186.887 68.1932 187.811 69.2462 188.47 70.6023C189.137 71.9583 189.47 73.5455 189.47 75.3636C189.47 77.1667 189.137 78.7424 188.47 80.0909C187.811 81.4394 186.887 82.4886 185.697 83.2386C184.516 83.9886 183.137 84.3636 181.561 84.3636ZM181.561 81.9545C182.758 81.9545 183.743 81.6477 184.516 81.0341C185.288 80.4205 185.86 79.6136 186.232 78.6136C186.603 77.6136 186.788 76.5303 186.788 75.3636C186.788 74.197 186.603 73.1098 186.232 72.1023C185.86 71.0947 185.288 70.2803 184.516 69.6591C183.743 69.0379 182.758 68.7273 181.561 68.7273C180.364 68.7273 179.379 69.0379 178.607 69.6591C177.834 70.2803 177.262 71.0947 176.891 72.1023C176.519 73.1098 176.334 74.197 176.334 75.3636C176.334 76.5303 176.519 77.6136 176.891 78.6136C177.262 79.6136 177.834 80.4205 178.607 81.0341C179.379 81.6477 180.364 81.9545 181.561 81.9545ZM200.155 84.3636C198.7 84.3636 197.416 83.9962 196.303 83.2614C195.189 82.5189 194.318 81.4735 193.689 80.125C193.06 78.7689 192.746 77.1667 192.746 75.3182C192.746 73.4848 193.06 71.8939 193.689 70.5455C194.318 69.197 195.193 68.1553 196.314 67.4205C197.435 66.6856 198.731 66.3182 200.2 66.3182C201.337 66.3182 202.234 66.5076 202.893 66.8864C203.56 67.2576 204.068 67.6818 204.416 68.1591C204.772 68.6288 205.049 69.0152 205.246 69.3182H205.473V60.7273H208.155V84H205.564V81.3182H205.246C205.049 81.6364 204.768 82.0379 204.405 82.5227C204.041 83 203.522 83.428 202.848 83.8068C202.174 84.178 201.276 84.3636 200.155 84.3636ZM200.518 81.9545C201.594 81.9545 202.503 81.6742 203.246 81.1136C203.988 80.5455 204.553 79.7614 204.939 78.7614C205.325 77.7538 205.518 76.5909 205.518 75.2727C205.518 73.9697 205.329 72.8295 204.95 71.8523C204.571 70.8674 204.011 70.1023 203.268 69.5568C202.526 69.0038 201.609 68.7273 200.518 68.7273C199.382 68.7273 198.435 69.0189 197.678 69.6023C196.928 70.178 196.363 70.9621 195.984 71.9545C195.613 72.9394 195.428 74.0455 195.428 75.2727C195.428 76.5152 195.617 77.6439 195.996 78.6591C196.382 79.6667 196.95 80.4697 197.7 81.0682C198.458 81.6591 199.397 81.9545 200.518 81.9545ZM220.757 84.3636C219.075 84.3636 217.625 83.9924 216.405 83.25C215.193 82.5 214.257 81.4545 213.598 80.1136C212.946 78.7652 212.621 77.197 212.621 75.4091C212.621 73.6212 212.946 72.0455 213.598 70.6818C214.257 69.3106 215.174 68.2424 216.348 67.4773C217.53 66.7045 218.909 66.3182 220.484 66.3182C221.393 66.3182 222.291 66.4697 223.178 66.7727C224.064 67.0758 224.871 67.5682 225.598 68.25C226.325 68.9242 226.905 69.8182 227.337 70.9318C227.768 72.0455 227.984 73.4167 227.984 75.0455V76.1818H214.53V73.8636H225.257C225.257 72.8788 225.06 72 224.666 71.2273C224.28 70.4545 223.727 69.8447 223.007 69.3977C222.295 68.9508 221.454 68.7273 220.484 68.7273C219.416 68.7273 218.492 68.9924 217.712 69.5227C216.939 70.0455 216.344 70.7273 215.928 71.5682C215.511 72.4091 215.303 73.3106 215.303 74.2727V75.8182C215.303 77.1364 215.53 78.2538 215.984 79.1705C216.446 80.0795 217.087 80.7727 217.905 81.25C218.723 81.7197 219.674 81.9545 220.757 81.9545C221.462 81.9545 222.098 81.8561 222.666 81.6591C223.242 81.4545 223.738 81.1515 224.155 80.75C224.571 80.3409 224.893 79.8333 225.121 79.2273L227.712 79.9545C227.439 80.8333 226.981 81.6061 226.337 82.2727C225.693 82.9318 224.897 83.447 223.95 83.8182C223.003 84.1818 221.939 84.3636 220.757 84.3636ZM99.6108 129.545V105.545H102.202V108.318H102.52C102.717 108.015 102.99 107.629 103.338 107.159C103.694 106.682 104.202 106.258 104.861 105.886C105.527 105.508 106.429 105.318 107.565 105.318C109.035 105.318 110.33 105.686 111.452 106.42C112.573 107.155 113.448 108.197 114.077 109.545C114.705 110.894 115.02 112.485 115.02 114.318C115.02 116.167 114.705 117.769 114.077 119.125C113.448 120.473 112.577 121.519 111.463 122.261C110.349 122.996 109.065 123.364 107.611 123.364C106.49 123.364 105.592 123.178 104.918 122.807C104.243 122.428 103.724 122 103.361 121.523C102.997 121.038 102.717 120.636 102.52 120.318H102.293V129.545H99.6108ZM102.247 114.273C102.247 115.591 102.44 116.754 102.827 117.761C103.213 118.761 103.777 119.545 104.52 120.114C105.262 120.674 106.171 120.955 107.247 120.955C108.368 120.955 109.304 120.659 110.054 120.068C110.812 119.47 111.38 118.667 111.759 117.659C112.145 116.644 112.338 115.515 112.338 114.273C112.338 113.045 112.149 111.939 111.77 110.955C111.399 109.962 110.834 109.178 110.077 108.602C109.327 108.019 108.384 107.727 107.247 107.727C106.156 107.727 105.24 108.004 104.497 108.557C103.755 109.102 103.194 109.867 102.815 110.852C102.437 111.83 102.247 112.97 102.247 114.273ZM119.111 123V105.545H121.702V108.182H121.884C122.202 107.318 122.777 106.617 123.611 106.08C124.444 105.542 125.384 105.273 126.429 105.273C126.626 105.273 126.872 105.277 127.168 105.284C127.463 105.292 127.687 105.303 127.838 105.318V108.045C127.747 108.023 127.539 107.989 127.213 107.943C126.895 107.89 126.558 107.864 126.202 107.864C125.353 107.864 124.596 108.042 123.929 108.398C123.27 108.746 122.747 109.231 122.361 109.852C121.982 110.466 121.793 111.167 121.793 111.955V123H119.111ZM137.577 123.364C136.001 123.364 134.618 122.989 133.429 122.239C132.247 121.489 131.323 120.439 130.656 119.091C129.997 117.742 129.668 116.167 129.668 114.364C129.668 112.545 129.997 110.958 130.656 109.602C131.323 108.246 132.247 107.193 133.429 106.443C134.618 105.693 136.001 105.318 137.577 105.318C139.152 105.318 140.531 105.693 141.713 106.443C142.902 107.193 143.827 108.246 144.486 109.602C145.152 110.958 145.486 112.545 145.486 114.364C145.486 116.167 145.152 117.742 144.486 119.091C143.827 120.439 142.902 121.489 141.713 122.239C140.531 122.989 139.152 123.364 137.577 123.364ZM137.577 120.955C138.774 120.955 139.759 120.648 140.531 120.034C141.304 119.42 141.876 118.614 142.247 117.614C142.618 116.614 142.804 115.53 142.804 114.364C142.804 113.197 142.618 112.11 142.247 111.102C141.876 110.095 141.304 109.28 140.531 108.659C139.759 108.038 138.774 107.727 137.577 107.727C136.38 107.727 135.395 108.038 134.622 108.659C133.849 109.28 133.277 110.095 132.906 111.102C132.535 112.11 132.349 113.197 132.349 114.364C132.349 115.53 132.535 116.614 132.906 117.614C133.277 118.614 133.849 119.42 134.622 120.034C135.395 120.648 136.38 120.955 137.577 120.955ZM149.58 105.545H152.261V124.273C152.261 125.348 152.076 126.28 151.705 127.068C151.341 127.856 150.788 128.466 150.045 128.898C149.311 129.33 148.383 129.545 147.261 129.545C147.17 129.545 147.08 129.545 146.989 129.545C146.898 129.545 146.807 129.545 146.716 129.545V127.045C146.807 127.045 146.89 127.045 146.966 127.045C147.042 127.045 147.125 127.045 147.216 127.045C148.034 127.045 148.633 126.803 149.011 126.318C149.39 125.841 149.58 125.159 149.58 124.273V105.545ZM150.898 102.636C150.375 102.636 149.924 102.458 149.545 102.102C149.174 101.746 148.989 101.318 148.989 100.818C148.989 100.318 149.174 99.8902 149.545 99.5341C149.924 99.178 150.375 99 150.898 99C151.42 99 151.867 99.178 152.239 99.5341C152.617 99.8902 152.807 100.318 152.807 100.818C152.807 101.318 152.617 101.746 152.239 102.102C151.867 102.458 151.42 102.636 150.898 102.636ZM164.491 123.364C162.81 123.364 161.359 122.992 160.139 122.25C158.927 121.5 157.991 120.455 157.332 119.114C156.681 117.765 156.355 116.197 156.355 114.409C156.355 112.621 156.681 111.045 157.332 109.682C157.991 108.311 158.908 107.242 160.082 106.477C161.264 105.705 162.643 105.318 164.219 105.318C165.128 105.318 166.026 105.47 166.912 105.773C167.798 106.076 168.605 106.568 169.332 107.25C170.06 107.924 170.639 108.818 171.071 109.932C171.503 111.045 171.719 112.417 171.719 114.045V115.182H158.264V112.864H168.991C168.991 111.879 168.795 111 168.401 110.227C168.014 109.455 167.461 108.845 166.741 108.398C166.029 107.951 165.188 107.727 164.219 107.727C163.151 107.727 162.226 107.992 161.446 108.523C160.673 109.045 160.079 109.727 159.662 110.568C159.245 111.409 159.037 112.311 159.037 113.273V114.818C159.037 116.136 159.264 117.254 159.719 118.17C160.181 119.08 160.821 119.773 161.639 120.25C162.457 120.72 163.408 120.955 164.491 120.955C165.196 120.955 165.832 120.856 166.401 120.659C166.976 120.455 167.473 120.152 167.889 119.75C168.306 119.341 168.628 118.833 168.855 118.227L171.446 118.955C171.173 119.833 170.715 120.606 170.071 121.273C169.427 121.932 168.632 122.447 167.685 122.818C166.738 123.182 165.673 123.364 164.491 123.364ZM182.889 123.364C181.253 123.364 179.844 122.977 178.662 122.205C177.48 121.432 176.571 120.367 175.935 119.011C175.298 117.655 174.98 116.106 174.98 114.364C174.98 112.591 175.306 111.027 175.957 109.67C176.616 108.307 177.533 107.242 178.707 106.477C179.889 105.705 181.268 105.318 182.844 105.318C184.071 105.318 185.177 105.545 186.162 106C187.147 106.455 187.954 107.091 188.582 107.909C189.211 108.727 189.601 109.682 189.753 110.773H187.071C186.866 109.977 186.412 109.273 185.707 108.659C185.01 108.038 184.071 107.727 182.889 107.727C181.844 107.727 180.927 108 180.139 108.545C179.359 109.083 178.749 109.845 178.31 110.83C177.878 111.807 177.662 112.955 177.662 114.273C177.662 115.621 177.874 116.795 178.298 117.795C178.73 118.795 179.336 119.572 180.116 120.125C180.904 120.678 181.829 120.955 182.889 120.955C183.586 120.955 184.219 120.833 184.787 120.591C185.355 120.348 185.836 120 186.23 119.545C186.624 119.091 186.904 118.545 187.071 117.909H189.753C189.601 118.939 189.226 119.867 188.628 120.693C188.037 121.511 187.253 122.163 186.276 122.648C185.306 123.125 184.177 123.364 182.889 123.364ZM201.264 105.545V107.818H192.219V105.545H201.264ZM194.855 101.364H197.537V118C197.537 118.758 197.647 119.326 197.866 119.705C198.094 120.076 198.382 120.326 198.73 120.455C199.086 120.576 199.461 120.636 199.855 120.636C200.151 120.636 200.393 120.621 200.582 120.591C200.772 120.553 200.923 120.523 201.037 120.5L201.582 122.909C201.401 122.977 201.147 123.045 200.821 123.114C200.495 123.189 200.082 123.227 199.582 123.227C198.825 123.227 198.082 123.064 197.355 122.739C196.635 122.413 196.037 121.917 195.56 121.25C195.09 120.583 194.855 119.742 194.855 118.727V101.364Z" fill="black"/>
</svg>
