<svg width="300" height="200" viewBox="0 0 300 200" fill="none" xmlns="http://www.w3.org/2000/svg">
<rect width="300" height="200" fill="white"/>
<path d="M89.5455 91.2273V88.7273H107V91.2273H99.6818V112H96.8636V91.2273H89.5455ZM112.94 112L107.622 94.5455H110.44L114.213 107.909H114.395L118.122 94.5455H120.986L124.668 107.864H124.849L128.622 94.5455H131.44L126.122 112H123.486L119.668 98.5909H119.395L115.577 112H112.94ZM141.71 112.364C140.028 112.364 138.578 111.992 137.358 111.25C136.146 110.5 135.21 109.455 134.551 108.114C133.9 106.765 133.574 105.197 133.574 103.409C133.574 101.621 133.9 100.045 134.551 98.6818C135.21 97.3106 136.127 96.2424 137.301 95.4773C138.483 94.7045 139.862 94.3182 141.438 94.3182C142.347 94.3182 143.244 94.4697 144.131 94.7727C145.017 95.0758 145.824 95.5682 146.551 96.25C147.278 96.9242 147.858 97.8182 148.29 98.9318C148.722 100.045 148.938 101.417 148.938 103.045V104.182H135.483V101.864H146.21C146.21 100.879 146.013 100 145.619 99.2273C145.233 98.4545 144.68 97.8447 143.96 97.3977C143.248 96.9508 142.407 96.7273 141.438 96.7273C140.369 96.7273 139.445 96.9924 138.665 97.5227C137.892 98.0455 137.297 98.7273 136.881 99.5682C136.464 100.409 136.256 101.311 136.256 102.273V103.818C136.256 105.136 136.483 106.254 136.938 107.17C137.4 108.08 138.04 108.773 138.858 109.25C139.676 109.72 140.627 109.955 141.71 109.955C142.415 109.955 143.051 109.856 143.619 109.659C144.195 109.455 144.691 109.152 145.108 108.75C145.525 108.341 145.847 107.833 146.074 107.227L148.665 107.955C148.392 108.833 147.934 109.606 147.29 110.273C146.646 110.932 145.85 111.447 144.903 111.818C143.956 112.182 142.892 112.364 141.71 112.364ZM160.335 112.364C158.653 112.364 157.203 111.992 155.983 111.25C154.771 110.5 153.835 109.455 153.176 108.114C152.525 106.765 152.199 105.197 152.199 103.409C152.199 101.621 152.525 100.045 153.176 98.6818C153.835 97.3106 154.752 96.2424 155.926 95.4773C157.108 94.7045 158.487 94.3182 160.062 94.3182C160.972 94.3182 161.869 94.4697 162.756 94.7727C163.642 95.0758 164.449 95.5682 165.176 96.25C165.903 96.9242 166.483 97.8182 166.915 98.9318C167.347 100.045 167.562 101.417 167.562 103.045V104.182H154.108V101.864H164.835C164.835 100.879 164.638 100 164.244 99.2273C163.858 98.4545 163.305 97.8447 162.585 97.3977C161.873 96.9508 161.032 96.7273 160.062 96.7273C158.994 96.7273 158.07 96.9924 157.29 97.5227C156.517 98.0455 155.922 98.7273 155.506 99.5682C155.089 100.409 154.881 101.311 154.881 102.273V103.818C154.881 105.136 155.108 106.254 155.562 107.17C156.025 108.08 156.665 108.773 157.483 109.25C158.301 109.72 159.252 109.955 160.335 109.955C161.04 109.955 161.676 109.856 162.244 109.659C162.82 109.455 163.316 109.152 163.733 108.75C164.15 108.341 164.472 107.833 164.699 107.227L167.29 107.955C167.017 108.833 166.559 109.606 165.915 110.273C165.271 110.932 164.475 111.447 163.528 111.818C162.581 112.182 161.517 112.364 160.335 112.364ZM179.233 94.5455V96.8182H170.188V94.5455H179.233ZM172.824 90.3636H175.506V107C175.506 107.758 175.616 108.326 175.835 108.705C176.063 109.076 176.35 109.326 176.699 109.455C177.055 109.576 177.43 109.636 177.824 109.636C178.119 109.636 178.362 109.621 178.551 109.591C178.741 109.553 178.892 109.523 179.006 109.5L179.551 111.909C179.369 111.977 179.116 112.045 178.79 112.114C178.464 112.189 178.051 112.227 177.551 112.227C176.794 112.227 176.051 112.064 175.324 111.739C174.604 111.413 174.006 110.917 173.528 110.25C173.059 109.583 172.824 108.742 172.824 107.727V90.3636ZM190.398 112.364C188.716 112.364 187.265 111.992 186.045 111.25C184.833 110.5 183.898 109.455 183.239 108.114C182.587 106.765 182.261 105.197 182.261 103.409C182.261 101.621 182.587 100.045 183.239 98.6818C183.898 97.3106 184.814 96.2424 185.989 95.4773C187.17 94.7045 188.549 94.3182 190.125 94.3182C191.034 94.3182 191.932 94.4697 192.818 94.7727C193.705 95.0758 194.511 95.5682 195.239 96.25C195.966 96.9242 196.545 97.8182 196.977 98.9318C197.409 100.045 197.625 101.417 197.625 103.045V104.182H184.17V101.864H194.898C194.898 100.879 194.701 100 194.307 99.2273C193.92 98.4545 193.367 97.8447 192.648 97.3977C191.936 96.9508 191.095 96.7273 190.125 96.7273C189.057 96.7273 188.133 96.9924 187.352 97.5227C186.58 98.0455 185.985 98.7273 185.568 99.5682C185.152 100.409 184.943 101.311 184.943 102.273V103.818C184.943 105.136 185.17 106.254 185.625 107.17C186.087 108.08 186.727 108.773 187.545 109.25C188.364 109.72 189.314 109.955 190.398 109.955C191.102 109.955 191.739 109.856 192.307 109.659C192.883 109.455 193.379 109.152 193.795 108.75C194.212 108.341 194.534 107.833 194.761 107.227L197.352 107.955C197.08 108.833 196.621 109.606 195.977 110.273C195.333 110.932 194.538 111.447 193.591 111.818C192.644 112.182 191.58 112.364 190.398 112.364ZM201.705 112V94.5455H204.295V97.1818H204.477C204.795 96.3182 205.371 95.6174 206.205 95.0795C207.038 94.5417 207.977 94.2727 209.023 94.2727C209.22 94.2727 209.466 94.2765 209.761 94.2841C210.057 94.2917 210.28 94.303 210.432 94.3182V97.0455C210.341 97.0227 210.133 96.9886 209.807 96.9432C209.489 96.8902 209.152 96.8636 208.795 96.8636C207.947 96.8636 207.189 97.0417 206.523 97.3977C205.864 97.7462 205.341 98.2311 204.955 98.8523C204.576 99.4659 204.386 100.167 204.386 100.955V112H201.705Z" fill="black"/>
</svg>
