<svg width="300" height="200" viewBox="0 0 300 200" fill="none" xmlns="http://www.w3.org/2000/svg">
<rect width="300" height="200" fill="white"/>
<path d="M73.7727 88.7273L80.6818 108.318H80.9545L87.8636 88.7273H90.8182L82.2727 112H79.3636L70.8182 88.7273H73.7727ZM92.9403 112.182C92.3797 112.182 91.8987 111.981 91.4972 111.58C91.0956 111.178 90.8949 110.697 90.8949 110.136C90.8949 109.576 91.0956 109.095 91.4972 108.693C91.8987 108.292 92.3797 108.091 92.9403 108.091C93.5009 108.091 93.982 108.292 94.3835 108.693C94.785 109.095 94.9858 109.576 94.9858 110.136C94.9858 110.508 94.8911 110.848 94.7017 111.159C94.5199 111.47 94.2737 111.72 93.9631 111.909C93.66 112.091 93.3191 112.182 92.9403 112.182ZM109.162 112V88.7273H117.026C118.851 88.7273 120.344 89.0568 121.503 89.7159C122.67 90.3674 123.533 91.25 124.094 92.3636C124.654 93.4773 124.935 94.7197 124.935 96.0909C124.935 97.4621 124.654 98.7083 124.094 99.8295C123.541 100.951 122.685 101.845 121.526 102.511C120.366 103.17 118.882 103.5 117.071 103.5H111.435V101H116.98C118.23 101 119.234 100.784 119.991 100.352C120.749 99.9205 121.298 99.3371 121.639 98.6023C121.988 97.8598 122.162 97.0227 122.162 96.0909C122.162 95.1591 121.988 94.3258 121.639 93.5909C121.298 92.8561 120.745 92.2803 119.98 91.8636C119.215 91.4394 118.2 91.2273 116.935 91.2273H111.98V112H109.162ZM129.972 112.182C129.411 112.182 128.93 111.981 128.528 111.58C128.127 111.178 127.926 110.697 127.926 110.136C127.926 109.576 128.127 109.095 128.528 108.693C128.93 108.292 129.411 108.091 129.972 108.091C130.532 108.091 131.013 108.292 131.415 108.693C131.816 109.095 132.017 109.576 132.017 110.136C132.017 110.508 131.922 110.848 131.733 111.159C131.551 111.47 131.305 111.72 130.994 111.909C130.691 112.091 130.35 112.182 129.972 112.182ZM158.92 94.5455C158.784 93.3939 158.231 92.5 157.261 91.8636C156.292 91.2273 155.102 90.9091 153.693 90.9091C152.663 90.9091 151.761 91.0758 150.989 91.4091C150.223 91.7424 149.625 92.2008 149.193 92.7841C148.769 93.3674 148.557 94.0303 148.557 94.7727C148.557 95.3939 148.705 95.928 149 96.375C149.303 96.8144 149.689 97.1818 150.159 97.4773C150.629 97.7652 151.121 98.0038 151.636 98.1932C152.152 98.375 152.625 98.5227 153.057 98.6364L155.42 99.2727C156.027 99.4318 156.701 99.6515 157.443 99.9318C158.193 100.212 158.909 100.595 159.591 101.08C160.28 101.557 160.848 102.17 161.295 102.92C161.742 103.67 161.966 104.591 161.966 105.682C161.966 106.939 161.636 108.076 160.977 109.091C160.326 110.106 159.371 110.913 158.114 111.511C156.864 112.11 155.345 112.409 153.557 112.409C151.89 112.409 150.447 112.14 149.227 111.602C148.015 111.064 147.061 110.314 146.364 109.352C145.674 108.39 145.284 107.273 145.193 106H148.102C148.178 106.879 148.473 107.606 148.989 108.182C149.511 108.75 150.17 109.174 150.966 109.455C151.769 109.727 152.633 109.864 153.557 109.864C154.633 109.864 155.598 109.689 156.455 109.341C157.311 108.985 157.989 108.492 158.489 107.864C158.989 107.227 159.239 106.485 159.239 105.636C159.239 104.864 159.023 104.235 158.591 103.75C158.159 103.265 157.591 102.871 156.886 102.568C156.182 102.265 155.42 102 154.602 101.773L151.739 100.955C149.92 100.432 148.481 99.6856 147.42 98.7159C146.36 97.7462 145.83 96.4773 145.83 94.9091C145.83 93.6061 146.182 92.4697 146.886 91.5C147.598 90.5227 148.553 89.7652 149.75 89.2273C150.955 88.6818 152.299 88.4091 153.784 88.4091C155.284 88.4091 156.617 88.678 157.784 89.2159C158.951 89.7462 159.875 90.4735 160.557 91.3977C161.246 92.322 161.61 93.3712 161.648 94.5455H158.92ZM173.827 94.5455V96.8182H164.781V94.5455H173.827ZM167.418 90.3636H170.099V107C170.099 107.758 170.209 108.326 170.429 108.705C170.656 109.076 170.944 109.326 171.293 109.455C171.649 109.576 172.024 109.636 172.418 109.636C172.713 109.636 172.955 109.621 173.145 109.591C173.334 109.553 173.486 109.523 173.599 109.5L174.145 111.909C173.963 111.977 173.709 112.045 173.384 112.114C173.058 112.189 172.645 112.227 172.145 112.227C171.387 112.227 170.645 112.064 169.918 111.739C169.198 111.413 168.599 110.917 168.122 110.25C167.652 109.583 167.418 108.742 167.418 107.727V90.3636ZM182.997 112.409C181.891 112.409 180.887 112.201 179.986 111.784C179.084 111.36 178.368 110.75 177.838 109.955C177.308 109.152 177.043 108.182 177.043 107.045C177.043 106.045 177.24 105.235 177.634 104.614C178.027 103.985 178.554 103.492 179.213 103.136C179.872 102.78 180.599 102.515 181.395 102.341C182.198 102.159 183.005 102.015 183.815 101.909C184.876 101.773 185.736 101.67 186.395 101.602C187.062 101.527 187.546 101.402 187.849 101.227C188.16 101.053 188.315 100.75 188.315 100.318V100.227C188.315 99.1061 188.009 98.2348 187.395 97.6136C186.789 96.9924 185.868 96.6818 184.634 96.6818C183.353 96.6818 182.349 96.9621 181.622 97.5227C180.895 98.0833 180.384 98.6818 180.088 99.3182L177.543 98.4091C177.997 97.3485 178.603 96.5227 179.361 95.9318C180.126 95.3333 180.959 94.9167 181.861 94.6818C182.77 94.4394 183.664 94.3182 184.543 94.3182C185.103 94.3182 185.747 94.3864 186.474 94.5227C187.209 94.6515 187.918 94.9205 188.599 95.3295C189.289 95.7386 189.861 96.3561 190.315 97.1818C190.77 98.0076 190.997 99.1136 190.997 100.5V112H188.315V109.636H188.179C187.997 110.015 187.694 110.42 187.27 110.852C186.846 111.284 186.281 111.652 185.577 111.955C184.872 112.258 184.012 112.409 182.997 112.409ZM183.406 110C184.467 110 185.361 109.792 186.088 109.375C186.823 108.958 187.376 108.42 187.747 107.761C188.126 107.102 188.315 106.409 188.315 105.682V103.227C188.202 103.364 187.952 103.489 187.565 103.602C187.187 103.708 186.747 103.803 186.247 103.886C185.755 103.962 185.274 104.03 184.804 104.091C184.342 104.144 183.967 104.189 183.679 104.227C182.982 104.318 182.33 104.466 181.724 104.67C181.126 104.867 180.641 105.167 180.27 105.568C179.906 105.962 179.724 106.5 179.724 107.182C179.724 108.114 180.069 108.818 180.759 109.295C181.455 109.765 182.338 110 183.406 110ZM195.892 112V94.5455H198.574V112H195.892ZM197.256 91.6364C196.733 91.6364 196.282 91.4583 195.903 91.1023C195.532 90.7462 195.347 90.3182 195.347 89.8182C195.347 89.3182 195.532 88.8902 195.903 88.5341C196.282 88.178 196.733 88 197.256 88C197.778 88 198.225 88.178 198.597 88.5341C198.975 88.8902 199.165 89.3182 199.165 89.8182C199.165 90.3182 198.975 90.7462 198.597 91.1023C198.225 91.4583 197.778 91.6364 197.256 91.6364ZM203.486 112V94.5455H206.077V97.1818H206.259C206.577 96.3182 207.152 95.6174 207.986 95.0795C208.819 94.5417 209.759 94.2727 210.804 94.2727C211.001 94.2727 211.247 94.2765 211.543 94.2841C211.838 94.2917 212.062 94.303 212.213 94.3182V97.0455C212.122 97.0227 211.914 96.9886 211.588 96.9432C211.27 96.8902 210.933 96.8636 210.577 96.8636C209.728 96.8636 208.971 97.0417 208.304 97.3977C207.645 97.7462 207.122 98.2311 206.736 98.8523C206.357 99.4659 206.168 100.167 206.168 100.955V112H203.486ZM227.756 98.4545L225.347 99.1364C225.195 98.7348 224.972 98.3447 224.676 97.9659C224.388 97.5795 223.994 97.2614 223.494 97.0114C222.994 96.7614 222.354 96.6364 221.574 96.6364C220.506 96.6364 219.616 96.8826 218.903 97.375C218.199 97.8598 217.847 98.4773 217.847 99.2273C217.847 99.8939 218.089 100.42 218.574 100.807C219.059 101.193 219.816 101.515 220.847 101.773L223.438 102.409C224.998 102.788 226.161 103.367 226.926 104.148C227.691 104.92 228.074 105.917 228.074 107.136C228.074 108.136 227.786 109.03 227.21 109.818C226.642 110.606 225.847 111.227 224.824 111.682C223.801 112.136 222.612 112.364 221.256 112.364C219.475 112.364 218.002 111.977 216.835 111.205C215.669 110.432 214.93 109.303 214.619 107.818L217.165 107.182C217.407 108.121 217.866 108.826 218.54 109.295C219.222 109.765 220.112 110 221.21 110C222.46 110 223.453 109.735 224.188 109.205C224.93 108.667 225.301 108.023 225.301 107.273C225.301 106.667 225.089 106.159 224.665 105.75C224.241 105.333 223.589 105.023 222.71 104.818L219.801 104.136C218.203 103.758 217.028 103.17 216.278 102.375C215.536 101.572 215.165 100.568 215.165 99.3636C215.165 98.3788 215.441 97.5076 215.994 96.75C216.555 95.9924 217.316 95.3977 218.278 94.9659C219.248 94.5341 220.347 94.3182 221.574 94.3182C223.301 94.3182 224.657 94.697 225.642 95.4545C226.634 96.2121 227.339 97.2121 227.756 98.4545Z" fill="black"/>
</svg>
